# xmcd
#
# Track frame offsets:
#	150
#	14330
#	23517
#	35606
#	46077
#	54142
#	63681
#	71368
#	85549
#	92664
#	104026
#	123323
#
# Disc length: 1741 seconds
#
# Revision: 0
# Processed by: cddbd v1.5.2PL0 Copyright (c) Steve Scherf et al.
# Submitted via: audiograbber 1.83.01
#
DISCID=8f06cb0c
DTITLE=Patti Page - Let's Get Away From It All
DYEAR=1900
DGENRE=
TTITLE0=Autumn In Rome
TTITLE1=Let's Get Away From It All
TTITLE2=Under Paris Skies
TTITLE3=Basin Street Blues
TTITLE4=Just A Little Bit South Of North Carolina
TTITLE5=Route 66
TTITLE6=Mississippi Mud
TTITLE7=South Of The Border
TTITLE8=Way Down Yonder In New Orleans
TTITLE9=April In Paris
TTITLE10=Irish Lullaby
TTITLE11=The Whole World Is Singing My Song
EXTD=
EXTT0=
EXTT1=
EXTT2=
EXTT3=
EXTT4=
EXTT5=
EXTT6=
EXTT7=
EXTT8=
EXTT9=
EXTT10=
EXTT11=
PLAYORDER=
